<svg xmlns="http://www.w3.org/2000/svg" width="1120" height="520" viewBox="0 0 1120 520">
<rect x="0.0" y="0.0" width="1120.0" height="520.0" rx="0" fill="#ffffff" stroke="none" opacity="1.0"/>
<text x="56.0" y="44.0" font-family="Arial, sans-serif" font-size="26" fill="#111827" text-anchor="start" font-weight="700">4GS/s Evidence: TX pattern component is visible at ADC</text>
<text x="56.0" y="76.0" font-family="Arial, sans-serif" font-size="15" fill="#4b5563" text-anchor="start" font-weight="400">Baseline capture iladata2.csv: normalized TX/ADC overlay after lag compensation (534 samples), corr=0.657</text>
<rect x="80.0" y="105.0" width="970.0" height="310.0" rx="6" fill="#f9fafb" stroke="#e5e7eb" opacity="1.0"/>
<line x1="80.0" y1="105.0" x2="1050.0" y2="105.0" stroke="#e5e7eb" stroke-width="1"/>
<line x1="80.0" y1="182.5" x2="1050.0" y2="182.5" stroke="#e5e7eb" stroke-width="1"/>
<line x1="80.0" y1="260.0" x2="1050.0" y2="260.0" stroke="#e5e7eb" stroke-width="1"/>
<line x1="80.0" y1="337.5" x2="1050.0" y2="337.5" stroke="#e5e7eb" stroke-width="1"/>
<line x1="80.0" y1="415.0" x2="1050.0" y2="415.0" stroke="#e5e7eb" stroke-width="1"/>
<line x1="80.0" y1="260.0" x2="1050.0" y2="260.0" stroke="#9ca3af" stroke-width="1.3"/>
<text x="64.0" y="110.0" font-family="Arial, sans-serif" font-size="12" fill="#6b7280" text-anchor="end" font-weight="400">+1</text>
<text x="64.0" y="264.0" font-family="Arial, sans-serif" font-size="12" fill="#6b7280" text-anchor="end" font-weight="400">0</text>
<text x="64.0" y="419.0" font-family="Arial, sans-serif" font-size="12" fill="#6b7280" text-anchor="end" font-weight="400">-1</text>
<polyline points="80.0,275.3 83.0,189.2 86.1,275.3 89.1,246.6 92.2,246.6 95.2,304.1 98.2,217.9 101.3,361.5 104.3,189.2 107.4,361.5 110.4,304.1 113.4,304.1 116.5,131.8 119.5,332.8 122.6,275.3 125.6,275.3 128.7,275.3 131.7,332.8 134.7,304.1 137.8,131.8 140.8,217.9 143.9,275.3 146.9,246.6 149.9,246.6 153.0,361.5 156.0,304.1 159.1,131.8 162.1,275.3 165.1,361.5 168.2,304.1 171.2,304.1 174.3,246.6 177.3,332.8 180.3,131.8 183.4,390.2 186.4,246.6 189.5,332.8 192.5,304.1 195.5,189.2 198.6,361.5 201.6,131.8 204.7,332.8 207.7,217.9 210.8,361.5 213.8,304.1 216.8,246.6 219.9,275.3 222.9,160.5 226.0,217.9 229.0,332.8 232.0,275.3 235.1,332.8 238.1,189.2 241.2,246.6 244.2,189.2 247.2,275.3 250.3,189.2 253.3,275.3 256.4,361.5 259.4,246.6 262.4,332.8 265.5,189.2 268.5,361.5 271.6,189.2 274.6,361.5 277.6,246.6 280.7,217.9 283.7,361.5 286.8,246.6 289.8,275.3 292.9,275.3 295.9,275.3 298.9,217.9 302.0,304.1 305.0,275.3 308.1,217.9 311.1,246.6 314.1,246.6 317.2,246.6 320.2,304.1 323.3,160.5 326.3,275.3 329.3,304.1 332.4,332.8 335.4,304.1 338.5,304.1 341.5,131.8 344.5,217.9 347.6,390.2 350.6,131.8 353.7,390.2 356.7,304.1 359.7,304.1 362.8,131.8 365.8,275.3 368.9,304.1 371.9,160.5 375.0,332.8 378.0,332.8 381.0,304.1 384.1,131.8 387.1,390.2 390.2,131.8 393.2,217.9 396.2,217.9 399.3,390.2 402.3,304.1 405.4,131.8 408.4,332.8 411.4,160.5 414.5,275.3 417.5,246.6 420.6,304.1 423.6,332.8 426.6,131.8 429.7,217.9 432.7,217.9 435.8,390.2 438.8,304.1 441.8,131.8 444.9,390.2 447.9,131.8 451.0,275.3 454.0,246.6 457.1,304.1 460.1,332.8 463.1,131.8 466.2,332.8 469.2,160.5 472.3,390.2 475.3,304.1 478.3,131.8 481.4,390.2 484.4,131.8 487.5,217.9 490.5,217.9 493.5,332.8 496.6,332.8 499.6,131.8 502.7,332.8 505.7,160.5 508.7,275.3 511.8,246.6 514.8,189.2 517.9,390.2 520.9,131.8 523.9,217.9 527.0,217.9 530.0,390.2 533.1,304.1 536.1,189.2 539.2,304.1 542.2,160.5 545.2,275.3 548.3,246.6 551.3,304.1 554.4,332.8 557.4,246.6 560.4,160.5 563.5,217.9 566.5,390.2 569.6,304.1 572.6,131.8 575.6,390.2 578.7,189.2 581.7,189.2 584.8,275.3 587.8,304.1 590.8,332.8 593.9,131.8 596.9,332.8 600.0,275.3 603.0,217.9 606.1,361.5 609.1,131.8 612.1,390.2 615.2,131.8 618.2,217.9 621.3,275.3 624.3,304.1 627.3,275.3 630.4,160.5 633.4,332.8 636.5,160.5 639.5,275.3 642.5,361.5 645.6,131.8 648.6,275.3 651.7,189.2 654.7,217.9 657.7,217.9 660.8,390.2 663.8,246.6 666.9,160.5 669.9,390.2 672.9,189.2 676.0,246.6 679.0,246.6 682.1,304.1 685.1,217.9 688.2,189.2 691.2,332.8 694.2,275.3 697.3,332.8 700.3,304.1 703.4,131.8 706.4,332.8 709.4,217.9 712.5,189.2 715.5,275.3 718.6,361.5 721.6,304.1 724.6,131.8 727.7,217.9 730.7,332.8 733.8,217.9 736.8,361.5 739.8,246.6 742.9,332.8 745.9,131.8 749.0,275.3 752.0,189.2 755.0,332.8 758.1,275.3 761.1,217.9 764.2,361.5 767.2,131.8 770.3,390.2 773.3,189.2 776.3,189.2 779.4,275.3 782.4,304.1 785.5,275.3 788.5,160.5 791.5,332.8 794.6,275.3 797.6,217.9 800.7,361.5 803.7,131.8 806.7,275.3 809.8,189.2 812.8,217.9 815.9,275.3 818.9,304.1 821.9,275.3 825.0,160.5 828.0,390.2 831.1,189.2 834.1,246.6 837.1,361.5 840.2,131.8 843.2,275.3 846.3,189.2 849.3,332.8 852.4,275.3 855.4,332.8 858.4,246.6 861.5,160.5 864.5,390.2 867.6,189.2 870.6,189.2 873.6,275.3 876.7,361.5 879.7,189.2 882.8,189.2 885.8,332.8 888.8,275.3 891.9,217.9 894.9,361.5 898.0,246.6 901.0,275.3 904.0,217.9 907.1,189.2 910.1,275.3 913.2,304.1 916.2,275.3 919.2,217.9 922.3,246.6 925.3,304.1 928.4,217.9 931.4,361.5 934.5,131.8 937.5,275.3 940.5,304.1 943.6,332.8 946.6,131.8 949.7,332.8 952.7,275.3 955.7,160.5 958.8,390.2 961.8,131.8 964.9,390.2 967.9,131.8 970.9,217.9 974.0,275.3 977.0,189.2 980.1,332.8 983.1,160.5 986.1,332.8 989.2,160.5 992.2,275.3 995.3,361.5 998.3,189.2 1001.3,189.2 1004.4,217.9 1007.4,217.9 1010.5,217.9 1013.5,390.2 1016.6,246.6 1019.6,275.3 1022.6,217.9 1025.7,246.6 1028.7,246.6 1031.8,246.6 1034.8,304.1 1037.8,217.9 1040.9,246.6 1043.9,304.1 1047.0,332.8 1050.0,304.1" fill="none" stroke="#2563eb" stroke-width="2.2" stroke-linejoin="round" stroke-linecap="round"/>
<polyline points="80.0,192.6 83.0,173.6 86.1,199.1 89.1,218.3 92.2,221.5 95.2,267.8 98.2,248.4 101.3,323.5 104.3,275.9 107.4,339.0 110.4,381.4 113.4,347.7 116.5,226.9 119.5,270.9 122.6,319.8 125.6,302.6 128.7,319.5 131.7,369.9 134.7,370.7 137.8,210.3 140.8,168.5 143.9,218.5 146.9,230.6 149.9,241.3 153.0,346.7 156.0,358.1 159.1,212.4 162.1,226.3 165.1,351.6 168.2,384.2 171.2,371.2 174.3,334.8 177.3,349.8 180.3,240.6 183.4,324.0 186.4,346.4 189.5,371.8 192.5,382.5 195.5,292.2 198.6,338.5 201.6,232.6 204.7,274.6 207.7,280.0 210.8,356.2 213.8,387.7 216.8,329.4 219.9,304.8 222.9,198.0 226.0,180.6 229.0,276.5 232.0,315.9 235.1,346.7 238.1,267.0 241.2,223.2 244.2,181.1 247.2,193.2 250.3,175.2 253.3,218.9 256.4,337.7 259.4,324.8 262.4,344.8 265.5,278.5 268.5,334.8 271.6,292.2 274.6,339.8 277.6,325.9 280.7,265.9 283.7,354.5 286.8,332.6 289.8,316.8 292.9,315.9 295.9,307.4 298.9,266.3 302.0,292.9 305.0,307.0 308.1,253.7 311.1,232.2 314.1,235.2 317.2,240.9 320.2,267.8 323.3,191.0 326.3,217.4 329.3,296.8 332.4,362.5 335.4,384.0 338.5,353.8 341.5,211.7 344.5,178.9 347.6,305.5 350.6,227.8 353.7,328.5 356.7,390.2 359.7,364.6 362.8,221.3 365.8,217.1 368.9,282.4 371.9,204.3 375.0,279.6 378.0,372.7 381.0,360.9 384.1,230.6 387.1,306.1 390.2,215.6 393.2,145.4 396.2,176.6 399.3,325.0 402.3,355.1 405.4,210.0 408.4,253.3 411.4,198.9 414.5,202.5 417.5,227.4 420.6,286.3 423.6,337.0 426.6,197.1 429.7,144.5 432.7,175.2 435.8,320.7 438.8,348.0 441.8,218.5 444.9,301.7 447.9,213.9 451.0,201.1 454.0,231.7 457.1,291.9 460.1,340.1 463.1,209.8 466.2,247.2 469.2,208.1 472.3,323.3 475.3,356.4 478.3,225.4 481.4,303.1 484.4,202.2 487.5,143.8 490.5,160.2 493.5,272.6 496.6,338.5 499.6,206.1 502.7,245.4 505.7,192.9 508.7,200.4 511.8,206.8 514.8,180.6 517.9,295.0 520.9,188.0 523.9,136.4 527.0,165.4 530.0,316.6 533.1,352.5 536.1,249.5 539.2,264.1 542.2,190.8 545.2,203.0 548.3,224.5 551.3,287.0 554.4,350.7 557.4,295.4 560.4,184.1 563.5,171.5 566.5,329.2 569.6,350.1 572.6,219.3 575.6,311.0 578.7,258.5 581.7,172.3 584.8,210.6 587.8,293.7 590.8,338.8 593.9,209.1 596.9,265.9 600.0,297.4 603.0,257.6 606.1,315.5 609.1,228.7 612.1,299.4 615.2,200.2 618.2,149.9 621.3,219.1 624.3,280.9 627.3,284.0 630.4,188.0 633.4,245.6 636.5,190.0 639.5,218.5 642.5,310.9 645.6,202.1 648.6,190.8 651.7,154.9 654.7,139.7 657.7,162.8 660.8,300.7 663.8,294.4 666.9,190.2 669.9,299.4 672.9,254.6 676.0,216.9 679.0,223.7 682.1,271.2 685.1,232.6 688.2,164.9 691.2,264.1 694.2,308.5 697.3,357.9 700.3,351.2 703.4,218.9 706.4,260.4 709.4,234.8 712.5,172.3 715.5,225.4 718.6,345.5 721.6,356.0 724.6,190.2 727.7,165.3 730.7,262.8 733.8,260.0 736.8,325.5 739.8,327.9 742.9,336.1 745.9,212.4 749.0,195.8 752.0,188.9 755.0,261.3 758.1,294.2 761.1,253.5 764.2,320.0 767.2,227.6 770.3,311.5 773.3,252.5 776.3,169.1 779.4,222.2 782.4,278.9 785.5,284.4 788.5,194.1 791.5,269.1 794.6,299.8 797.6,253.0 800.7,311.3 803.7,208.2 806.7,198.2 809.8,166.0 812.8,148.2 815.9,212.4 818.9,270.0 821.9,280.7 825.0,199.7 828.0,303.3 831.1,256.7 834.1,231.5 837.1,314.4 840.2,210.0 843.2,197.6 846.3,176.7 849.3,263.0 852.4,306.8 855.4,342.0 858.4,308.1 861.5,211.1 864.5,311.8 867.6,252.2 870.6,169.0 873.6,224.1 876.7,329.1 879.7,253.9 882.8,170.3 885.8,271.3 888.8,296.8 891.9,255.4 894.9,329.9 898.0,323.7 901.0,296.3 904.0,234.8 907.1,178.3 910.1,220.8 913.2,281.8 916.2,292.4 919.2,239.0 922.3,237.2 925.3,280.0 928.4,260.9 931.4,309.4 934.5,211.1 937.5,216.1 940.5,298.9 943.6,333.6 946.6,220.0 949.7,263.9 952.7,297.4 955.7,208.9 958.8,298.3 961.8,226.3 964.9,302.4 967.9,201.2 970.9,150.4 974.0,204.2 977.0,170.3 980.1,245.4 983.1,192.6 986.1,239.1 989.2,185.6 992.2,209.4 995.3,320.7 998.3,239.6 1001.3,158.6 1004.4,140.8 1007.4,139.5 1010.5,157.8 1013.5,297.9 1016.6,312.9 1019.6,282.0 1022.6,237.6 1025.7,216.7 1028.7,219.3 1031.8,221.3 1034.8,272.6 1037.8,241.0 1040.9,226.3 1043.9,292.9 1047.0,359.0 1050.0,379.2" fill="none" stroke="#ef4444" stroke-width="2.0" stroke-linejoin="round" stroke-linecap="round"/>
<rect x="825.0" y="116.0" width="205.0" height="58.0" rx="6" fill="#ffffff" stroke="#e5e7eb" opacity="0.94"/>
<line x1="846.0" y1="137.0" x2="892.0" y2="137.0" stroke="#2563eb" stroke-width="3"/>
<text x="904.0" y="142.0" font-family="Arial, sans-serif" font-size="13" fill="#1f2937" text-anchor="start" font-weight="400">TX DAC input</text>
<line x1="846.0" y1="160.0" x2="892.0" y2="160.0" stroke="#ef4444" stroke-width="3"/>
<text x="904.0" y="165.0" font-family="Arial, sans-serif" font-size="13" fill="#1f2937" text-anchor="start" font-weight="400">ADC output</text>
<text x="80.0" y="448.0" font-family="Arial, sans-serif" font-size="15" fill="#374151" text-anchor="start" font-weight="400">Interpretation: the ADC waveform is not random-only; it contains a delayed component correlated with the known TX PRBS/PAM4 pattern.</text>
</svg>
